<svg width="59" height="59" viewBox="0 0 59 59" fill="none" xmlns="http://www.w3.org/2000/svg">
<g clip-path="url(#clip0_3396_774)">
<path d="M29.5 0C13.2341 0 0 13.2341 0 29.5C0 45.7659 13.2341 59 29.5 59C45.7659 59 59 45.7659 59 29.5C59 13.2341 45.7659 0 29.5 0ZM29.5 56.0524C14.8583 56.0524 2.94759 44.1417 2.94759 29.5C2.94759 14.8583 14.8583 2.94759 29.5 2.94759C44.1417 2.94759 56.0524 14.8583 56.0524 29.5C56.0524 44.1417 44.1417 56.0524 29.5 56.0524Z" fill="#34CC99"/>
<path d="M37.2242 22.3174L25.9151 33.5664L21.7885 29.4157C21.211 28.8382 20.2846 28.8382 19.7071 29.4036C19.1296 29.9691 19.1296 30.9075 19.6951 31.485L24.8564 36.6824C25.1451 36.9711 25.5181 37.1155 25.9031 37.1155C26.276 37.1155 26.649 36.9711 26.9377 36.6824L39.2936 24.3988C39.871 23.8213 39.871 22.8949 39.3056 22.3174C38.7281 21.7399 37.8017 21.7399 37.2242 22.3174Z" fill="#34CC99"/>
</g>
<defs>
<clipPath id="clip0_3396_774">
<rect width="59" height="59" fill="white"/>
</clipPath>
</defs>
</svg>
