<svg width="164" height="158" viewBox="0 0 164 158" fill="none" xmlns="http://www.w3.org/2000/svg">
<path fill-rule="evenodd" clip-rule="evenodd" d="M84.2954 5.50254C80.8068 4.73646 77.1936 4.73646 73.7051 5.50254C69.7478 6.37156 66.1336 8.54201 60.9033 11.683L60.2018 12.1042L25.9685 32.6442L25.3068 33.041L25.3068 33.041C20.3512 36.0118 16.9256 38.0653 14.3773 40.9635C13.6131 41.8325 12.9128 42.7521 12.2807 43.7148L41.382 60.9111L109.767 19.2853L97.7986 12.1042L97.0971 11.683L97.097 11.683C91.8668 8.54199 88.2527 6.37155 84.2954 5.50254ZM51.019 66.6057L79 83.1399L145.72 43.7147C145.088 42.752 144.387 41.8325 143.623 40.9635C141.075 38.0653 137.649 36.0117 132.694 33.041L132.032 32.6442L119.332 25.024L51.019 66.6057ZM149.35 53.0397L83.9375 91.6925V152.573C84.0569 152.549 84.1762 152.523 84.2954 152.497C88.2527 151.628 91.8668 149.458 97.0971 146.317L97.7986 145.896L132.032 125.356L132.694 124.959L132.694 124.959L132.694 124.959C137.649 121.988 141.075 119.934 143.623 117.036C145.871 114.48 147.566 111.487 148.601 108.245C149.775 104.568 149.773 100.574 149.771 94.7966L149.771 94.0249V63.9748L149.771 63.2032C149.773 59.0866 149.774 55.8755 149.35 53.0397ZM74.0625 152.573V91.6925L8.65043 53.0399C8.22639 55.8757 8.22762 59.0867 8.22919 63.2033L8.22919 63.2033L8.22939 63.9748V94.0249L8.22919 94.7965C8.22699 100.574 8.22546 104.568 9.39948 108.245C10.4349 111.487 12.1297 114.48 14.3773 117.036C16.9256 119.934 20.3511 121.988 25.3064 124.959L25.3065 124.959L25.3067 124.959L25.3068 124.959L25.9685 125.356L60.2018 145.896L60.9033 146.317C66.1336 149.458 69.7478 151.628 73.7051 152.497C73.8241 152.523 73.9432 152.549 74.0625 152.573Z" fill="#E8E8E8"/>
<path fill-rule="evenodd" clip-rule="evenodd" d="M135.583 81.8645L135.506 81.8645C131.721 81.8645 128.775 81.8645 126.413 82.0575C124.013 82.2536 122.064 82.6571 120.311 83.5505C117.4 85.0335 115.034 87.4 113.551 90.3106C112.657 92.0639 112.254 94.0132 112.058 96.4123C111.865 98.7752 111.865 101.721 111.865 105.505L111.865 105.583V107.417L111.865 107.494C111.865 111.279 111.865 114.225 112.058 116.588C112.254 118.987 112.657 120.936 113.551 122.689C115.034 125.6 117.4 127.966 120.311 129.449C122.064 130.343 124.013 130.746 126.413 130.942C128.775 131.135 131.721 131.135 135.506 131.135H135.506H135.583H137.417H137.495H137.495C141.279 131.135 144.225 131.135 146.588 130.942C148.987 130.746 150.936 130.343 152.689 129.449C155.6 127.966 157.967 125.6 159.45 122.689C160.343 120.936 160.747 118.987 160.943 116.588C161.136 114.225 161.136 111.279 161.136 107.494V107.494V107.417V105.583V105.506V105.505C161.136 101.721 161.136 98.7752 160.943 96.4123C160.747 94.0132 160.343 92.0639 159.45 90.3106C157.967 87.4 155.6 85.0335 152.689 83.5505C150.936 82.6571 148.987 82.2536 146.588 82.0575C144.225 81.8645 141.279 81.8645 137.495 81.8645L137.417 81.8645H135.583Z" fill="#999999"/>
<path d="M130.018 100.018L136.5 106.5M142.982 112.982L136.5 106.5M136.5 106.5L142.982 100.018M136.5 106.5L130.018 112.982" stroke="#E8E8E8" stroke-width="3.4375" stroke-linecap="round" stroke-linejoin="round"/>
</svg>

