<svg width="22" height="24" viewBox="0 0 22 24" fill="none" xmlns="http://www.w3.org/2000/svg">
<path fill-rule="evenodd" clip-rule="evenodd" d="M11.8044 0.83581C11.2745 0.719443 10.7256 0.719443 10.1957 0.835811C9.59462 0.967813 9.04564 1.2975 8.25116 1.77462L8.1446 1.83859L2.94461 4.95859L2.8441 5.01886L2.8441 5.01886C2.09135 5.47012 1.57101 5.78206 1.18391 6.22228C1.06784 6.35428 0.96148 6.49396 0.865457 6.64019L5.28588 9.25226L15.6735 2.92937L13.8555 1.83859L13.749 1.77462C12.9545 1.2975 12.4055 0.967813 11.8044 0.83581ZM6.74972 10.1173L11 12.6288L21.1346 6.64014C21.0386 6.49393 20.9323 6.35427 20.8162 6.22228C20.4291 5.78206 19.9088 5.47012 19.156 5.01885L19.0555 4.95859L17.1263 3.80107L6.74972 10.1173ZM21.6861 8.05659L11.75 13.9279V23.1756C11.7682 23.1719 11.7863 23.1681 11.8044 23.1641C12.4055 23.0321 12.9545 22.7024 13.7489 22.2253L13.8555 22.1613L19.0555 19.0413L19.156 18.9811C19.9088 18.5298 20.4291 18.2179 20.8162 17.7776C21.1576 17.3894 21.415 16.9347 21.5723 16.4422C21.7507 15.8838 21.7504 15.2771 21.7501 14.3995V14.3994L21.7501 14.2822V9.71768L21.7501 9.60048V9.60045C21.7503 8.97512 21.7505 8.48735 21.6861 8.05659ZM10.25 23.1756V13.9279L0.314017 8.05665C0.249604 8.48741 0.24979 8.97517 0.250028 9.60048L0.250057 9.71768V14.2823L0.250028 14.3994C0.249693 15.2771 0.249462 15.8838 0.427794 16.4422C0.585078 16.9347 0.842508 17.3894 1.18391 17.7776C1.57101 18.2179 2.09136 18.5298 2.84411 18.9811L2.94461 19.0413L8.14461 22.1613L8.25115 22.2253C9.04563 22.7024 9.59462 23.0321 10.1957 23.1641C10.2138 23.1681 10.2319 23.1719 10.25 23.1756Z" fill="#22272F"/>
</svg>
