<svg width="24" height="24" viewBox="0 0 24 24" fill="none" xmlns="http://www.w3.org/2000/svg">
<path fill-rule="evenodd" clip-rule="evenodd" d="M13.1332 2.30693C12.3917 2.10179 11.6084 2.10179 10.8668 2.30693C10.4834 2.413 10.0909 2.6105 9.55706 2.97692C9.01543 3.34869 8.37127 3.86342 7.47098 4.58365L5.47098 6.18365C4.33583 7.09177 3.88235 7.46265 3.559 7.9087C3.26019 8.32092 3.03787 8.78347 2.90265 9.27432C2.75633 9.80545 2.75002 10.3913 2.75002 11.845V17C2.75002 19.3472 4.65281 21.25 7.00002 21.25C7.69038 21.25 8.25002 20.6903 8.25002 20V15.9999C8.25002 13.9288 9.92895 12.2499 12 12.2499C14.0711 12.2499 15.75 13.9288 15.75 15.9999V20C15.75 20.6903 16.3097 21.25 17 21.25C19.3472 21.25 21.25 19.3472 21.25 17V11.845C21.25 10.3913 21.2437 9.80545 21.0974 9.27432C20.9622 8.78347 20.7398 8.32092 20.441 7.9087C20.1177 7.46265 19.6642 7.09177 18.5291 6.18365L16.5291 4.58365C15.6288 3.86342 14.9846 3.34869 14.443 2.97692C13.9092 2.6105 13.5166 2.413 13.1332 2.30693ZM10.4669 0.861235C11.4701 0.58369 12.5299 0.58369 13.5332 0.861235C14.1388 1.02877 14.6866 1.32479 15.2918 1.74022C15.8841 2.14674 16.5708 2.6961 17.4432 3.39402L17.4661 3.41235L19.4661 5.01235C19.4964 5.03659 19.5264 5.06055 19.556 5.08425C20.5727 5.89742 21.1985 6.39792 21.6555 7.02834C22.0598 7.58604 22.3606 8.21185 22.5435 8.87593C22.7503 9.62658 22.7502 10.4279 22.75 11.7298C22.75 11.7678 22.75 11.8061 22.75 11.845V17C22.75 20.1756 20.1757 22.75 17 22.75C15.4812 22.75 14.25 21.5187 14.25 20V15.9999C14.25 14.7573 13.2427 13.7499 12 13.7499C10.7574 13.7499 9.75002 14.7573 9.75002 15.9999V20C9.75002 21.5187 8.5188 22.75 7.00002 22.75C3.82438 22.75 1.25002 20.1756 1.25002 17V11.845C1.25002 11.8061 1.25001 11.7678 1.25001 11.7298C1.24984 10.4279 1.24973 9.62659 1.45653 8.87593C1.63947 8.21185 1.94025 7.58604 2.34453 7.02834C2.80151 6.39793 3.4273 5.89743 4.44404 5.08426C4.47367 5.06056 4.50363 5.03659 4.53394 5.01235L6.53394 3.41235L6.55686 3.39401C7.42925 2.6961 8.11594 2.14673 8.70819 1.74022C9.31342 1.32479 9.86129 1.02877 10.4669 0.861235Z" fill="#A2A2A2"/>
</svg>
