<svg width="24" height="24" viewBox="0 0 24 24" fill="none" xmlns="http://www.w3.org/2000/svg">
<path fill-rule="evenodd" clip-rule="evenodd" d="M13.25 1.27028C12.8658 1.2499 12.4244 1.24995 11.8699 1.25001L11.7782 1.25001H11.7472C10.4778 1.25001 9.4826 1.25001 8.68083 1.31073C7.86473 1.37254 7.18819 1.5004 6.56962 1.78889C5.3447 2.36018 4.36017 3.34471 3.78888 4.56963C3.50039 5.18821 3.37252 5.86474 3.31072 6.68085C3.24999 7.48261 3.25 8.47782 3.25 9.74718V9.77819V14V14.0336C3.25 15.4053 3.24999 16.4807 3.32061 17.3451C3.39252 18.2252 3.54138 18.9523 3.87671 19.6105C4.42798 20.6924 5.30762 21.572 6.38955 22.1233C7.04768 22.4586 7.77479 22.6075 8.65494 22.6794C9.51924 22.75 10.5946 22.75 11.9662 22.75H11.9663H11.9663H11.9664H11.9664H12H12.0336H12.0336H12.0337H12.0337H12.0338C13.4054 22.75 14.4808 22.75 15.3451 22.6794C16.2252 22.6075 16.9523 22.4586 17.6104 22.1233C18.6924 21.572 19.572 20.6924 20.1233 19.6105C20.4586 18.9523 20.6075 18.2252 20.6794 17.3451C20.75 16.4808 20.75 15.4054 20.75 14.0338V14.0337V14.0337V14.0336V14.0336V14V10.5355L20.75 10.4188C20.7501 9.75448 20.7502 9.2175 20.7228 8.75H18L17.948 8.75H17.948C17.0495 8.75003 16.3003 8.75005 15.7055 8.67009C15.0777 8.58568 14.5109 8.40001 14.0555 7.94454C13.6 7.48907 13.4143 6.92227 13.3299 6.29448C13.2499 5.6997 13.25 4.95048 13.25 4.052L13.25 4V1.27028ZM20.454 7.25C20.3414 6.91277 20.1977 6.58653 20.0247 6.27552C19.6335 5.57241 19.0538 4.99289 18.1129 4.05222L18.0303 3.96968L17.8085 3.74786L17.7437 3.683L17.7437 3.683L17.7436 3.68298L17.7436 3.68296C17.0049 2.9441 16.5502 2.48926 16.0183 2.15042C15.6212 1.89746 15.1952 1.69464 14.75 1.546V4C14.75 4.96401 14.7516 5.61157 14.8165 6.09461C14.8786 6.55607 14.9858 6.75357 15.1161 6.88388C15.2464 7.0142 15.4439 7.12142 15.9054 7.18346C16.3884 7.24841 17.036 7.25 18 7.25H20.454ZM9 11.25C8.58579 11.25 8.25 11.5858 8.25 12C8.25 12.4142 8.58579 12.75 9 12.75H15C15.4142 12.75 15.75 12.4142 15.75 12C15.75 11.5858 15.4142 11.25 15 11.25H9ZM8.25 16C8.25 15.5858 8.58579 15.25 9 15.25H13C13.4142 15.25 13.75 15.5858 13.75 16C13.75 16.4142 13.4142 16.75 13 16.75H9C8.58579 16.75 8.25 16.4142 8.25 16Z" fill="#22272F"/>
</svg>
